<svg width="540" height="110" viewBox="0 0 540 110" fill="none" xmlns="http://www.w3.org/2000/svg">
<path d="M211.81 29.7197H201.47V81.5097H211.81V29.7197Z" fill="white"/>
<path d="M220.22 29.7197L240.42 81.5197H252.9L273.1 29.7197H261.79L246.72 71.0497L231.53 29.7197H220.22Z" fill="white"/>
<path d="M138.92 29.7197L159.12 81.5197H171.6L191.8 29.7197H180.49L165.42 71.0497L150.23 29.7197H138.92Z" fill="white"/>
<path d="M291.97 40.6293V29.7293H281.63V81.5193H291.97V55.4093C291.97 49.8293 293.68 45.7493 297.06 43.2893C300.25 40.9693 304.02 39.8793 308.26 40.0393V28.7793C300.76 28.9193 295.76 32.0293 293.01 38.2893L291.97 40.6293Z" fill="white"/>
<path d="M328.13 29.7197H317.79V81.5097H328.13V29.7197Z" fill="white"/>
<path d="M357.74 15.0996H347.4V29.7196H337.67V39.6396H347.4V65.5596C347.4 72.2496 349.24 76.8796 352.87 79.3396C356.48 81.7796 362.53 82.5296 370.85 81.5796V72.3696C368.2 72.4896 365.94 72.4996 364.12 72.3996C362.06 72.2896 360.46 71.6996 359.39 70.6596C358.3 69.6096 357.75 67.8996 357.75 65.5696V39.6396H370.86V29.7196H357.75V15.0996H357.74Z" fill="white"/>
<path d="M392.63 29.7197H382.29V81.5097H392.63V29.7197Z" fill="white"/>
<path d="M533.45 7.09004V102.9H437.64V7.09004H533.45ZM540 0.540039H533.45H437.64H431.09V7.09004V102.9V109.45H437.64H533.45H540V102.9V7.09004V0.540039Z" fill="white"/>
<path d="M474.161 49.3802L458.091 28.2902V49.3802H450.891V16.2002H457.621L473.171 36.6302V16.2002H480.381V49.3802H474.161Z" fill="white"/>
<path d="M472.97 93.8001L465.52 82.4201L458.03 93.8001H449.74L461.3 76.9301L450.21 60.6201H458.74L465.71 71.3801L472.73 60.6201H481.02L469.93 76.8301L481.49 93.8001H472.97Z" fill="white"/>
<path d="M511.25 67.3501V93.8001H503.95V67.3501H493.86V60.6201H521.35V67.3501H511.25Z" fill="white"/>
<path d="M521.341 16.2002H493.851V22.6902H521.341V16.2002Z" fill="white"/>
<path d="M521.341 42.8906H493.851V49.3806H521.341V42.8906Z" fill="white"/>
<path d="M521.341 29.54H493.851V36.03H521.341V29.54Z" fill="white"/>
<path fill-rule="evenodd" clip-rule="evenodd" d="M30.28 67.0703C27.54 72.9803 26 79.5603 26 86.5103C26 92.9003 27.3 98.9803 29.64 104.51C34.34 93.4103 43.58 85.4003 54.45 80.1803C53.38 79.6703 52.3 79.1803 51.2 78.7203C44.42 75.8703 37.16 72.3203 30.28 67.0703Z" fill="url(#paint0_linear_25484_101017)"/>
<path fill-rule="evenodd" clip-rule="evenodd" d="M108.91 5.5C108.91 5.5 77.0802 22.52 54.4502 40.25C60.5202 45.01 65.9302 49.82 69.8802 54.36C73.4602 58.05 76.4302 62.34 78.6302 67.06C92.5802 56.41 105 38.71 108.91 5.5Z" fill="url(#paint1_linear_25484_101017)"/>
<path d="M54.46 40.25C31.83 22.51 0 5.5 0 5.5C3.91 38.71 16.33 56.41 30.28 67.07C37.16 72.33 44.42 75.87 51.21 78.72C52.31 79.18 53.39 79.67 54.46 80.18C65.28 85.38 74.48 93.33 79.2 104.35C79.23 104.41 79.31 104.41 79.34 104.35C81.64 98.86 82.91 92.84 82.91 86.51C82.91 79.56 81.38 72.98 78.63 67.07C77.34 68.06 77.34 68.06 78.63 67.07C76.44 62.34 73.46 58.05 69.88 54.37C65.93 49.82 60.53 45.01 54.46 40.25Z" fill="url(#paint2_linear_25484_101017)"/>
<path fill-rule="evenodd" clip-rule="evenodd" d="M30.28 67.0703C27.54 72.9803 26 79.5603 26 86.5103C26 92.9003 27.3 98.9803 29.64 104.51C34.34 93.4103 43.58 85.4003 54.45 80.1803C53.38 79.6703 52.3 79.1803 51.2 78.7203C44.42 75.8703 37.16 72.3203 30.28 67.0703Z" fill="url(#paint3_linear_25484_101017)"/>
<path fill-rule="evenodd" clip-rule="evenodd" d="M108.91 5.5C108.91 5.5 77.0802 22.52 54.4502 40.25C60.5202 45.01 65.9302 49.82 69.8802 54.36C73.4602 58.05 76.4302 62.34 78.6302 67.06C92.5802 56.41 105 38.71 108.91 5.5Z" fill="url(#paint4_linear_25484_101017)"/>
<path d="M54.46 40.25C31.83 22.51 0 5.5 0 5.5C3.91 38.71 16.33 56.41 30.28 67.07C37.16 72.33 44.42 75.87 51.21 78.72C52.31 79.18 53.39 79.67 54.46 80.18C65.28 85.38 74.48 93.33 79.2 104.35C79.23 104.41 79.31 104.41 79.34 104.35C81.64 98.86 82.91 92.84 82.91 86.51C82.91 79.56 81.38 72.98 78.63 67.07C77.34 68.06 77.34 68.06 78.63 67.07C76.44 62.34 73.46 58.05 69.88 54.37C65.93 49.82 60.53 45.01 54.46 40.25Z" fill="url(#paint5_linear_25484_101017)"/>
<defs>
<linearGradient id="paint0_linear_25484_101017" x1="25.7635" y1="103.722" x2="45.5668" y2="67.817" gradientUnits="userSpaceOnUse">
<stop stop-color="white"/>
<stop offset="1" stop-color="white" stop-opacity="0"/>
</linearGradient>
<linearGradient id="paint1_linear_25484_101017" x1="113.409" y1="5.8539" x2="54.9249" y2="66.1892" gradientUnits="userSpaceOnUse">
<stop stop-color="white"/>
<stop offset="1" stop-color="white" stop-opacity="0"/>
</linearGradient>
<linearGradient id="paint2_linear_25484_101017" x1="135.071" y1="116.681" x2="-104.049" y2="-40.6344" gradientUnits="userSpaceOnUse">
<stop stop-color="white"/>
<stop offset="1" stop-color="white" stop-opacity="0"/>
</linearGradient>
<linearGradient id="paint3_linear_25484_101017" x1="25.7635" y1="103.722" x2="45.5668" y2="67.817" gradientUnits="userSpaceOnUse">
<stop stop-color="white"/>
<stop offset="1" stop-color="white" stop-opacity="0"/>
</linearGradient>
<linearGradient id="paint4_linear_25484_101017" x1="113.409" y1="5.8539" x2="54.9249" y2="66.1892" gradientUnits="userSpaceOnUse">
<stop stop-color="white"/>
<stop offset="1" stop-color="white" stop-opacity="0"/>
</linearGradient>
<linearGradient id="paint5_linear_25484_101017" x1="135.071" y1="116.681" x2="-104.049" y2="-40.6344" gradientUnits="userSpaceOnUse">
<stop stop-color="white"/>
<stop offset="1" stop-color="white" stop-opacity="0"/>
</linearGradient>
</defs>
</svg>
